<svg xmlns="http://www.w3.org/2000/svg" viewBox="0 0 3413.82 754.81"><defs><style>.a{fill:#06357a;}.b{fill:#009ddc;}</style></defs><title>app4sales</title><path class="a" d="M480.77,640.81H414c-12.51,0-24.19-6.67-27.52-19.18l-30-115.1H187.19l-28.36,115.1c-2.5,11.68-14.18,19.18-26.69,19.18H70.42c-14.18,0-20-12.51-16.68-25.85l141-513.77C198,88.67,210.54,82,222.22,82h95.91c11.67,0,24.19,6.67,27.52,19.18L497.45,615C501.62,628.3,494.95,640.81,480.77,640.81ZM282.27,210.44c-7.51-30.86-12.51-77.57-12.51-77.57s-5,45.87-12.51,77.57L208,419H334Z" transform="translate(-52.82 -50.31)"/><path class="a" d="M825.21,610.79c-18.35,18.35-48.37,35-84.24,35-47.54,0-71.73-17.51-91.74-42.54v181a20.65,20.65,0,0,1-20.85,20.85H574.16c-11.68,0-21.69-9.17-21.69-20.85V259.65c0-11.68,10-20.85,21.69-20.85h36.7c12.51,0,22.52,8.34,25.85,20.85l6.67,29.19c16.68-32.53,50-58.38,94.25-58.38,35.86,0,71.73,10.84,96.75,44.2s40,82.57,40,167.64C874.41,511.53,861.9,573.25,825.21,610.79Zm-70.06-269.4c-10.84-18.35-25.85-25.85-45.87-25.85-42.54,0-63.39,43.37-63.39,125.11,0,86.74,23.35,123.44,63.39,123.44,45,0,63.39-37.53,63.39-125.94C772.66,389.76,766,359.74,755.15,341.39Z" transform="translate(-52.82 -50.31)"/><path class="a" d="M1225.52,610.79c-18.35,18.35-48.37,35-84.24,35-47.54,0-71.73-17.51-91.74-42.54v181a20.65,20.65,0,0,1-20.85,20.85H974.47c-11.68,0-21.69-9.17-21.69-20.85V259.65c0-11.68,10-20.85,21.69-20.85h36.7c12.51,0,22.52,8.34,25.85,20.85l6.67,29.19c16.68-32.53,50-58.38,94.25-58.38,35.87,0,71.73,10.84,96.75,44.2s40,82.57,40,167.64C1274.73,511.53,1262.22,573.25,1225.52,610.79Zm-70.06-269.4c-10.84-18.35-25.85-25.85-45.87-25.85-42.54,0-63.39,43.37-63.39,125.11,0,86.74,23.35,123.44,63.39,123.44,45,0,63.39-37.53,63.39-125.94C1173,389.76,1166.3,359.74,1155.46,341.39Z" transform="translate(-52.82 -50.31)"/><path class="b" d="M1660.87,514.87H1622.5V620c0,11.67-10,20.85-21.69,20.85h-55.88A20.65,20.65,0,0,1,1524.08,620V514.87H1344.76A20.65,20.65,0,0,1,1323.91,494V447.31c0-10,2.5-20,5-30.86l75.9-317.77c2.5-11.67,13.34-16.68,25-16.68h77.57c13.34,0,15.85,10.84,12.51,22.52L1429,426.46h96.75l15-141.79c1.67-11.67,9.17-21.68,20.85-21.68h39.2a22.08,22.08,0,0,1,21.69,21.68V426.46h38.37c11.67,0,20.85,10,20.85,21.69V494A20.65,20.65,0,0,1,1660.87,514.87Z" transform="translate(-52.82 -50.31)"/><path class="a" d="M1881,645.82c-69.22,0-122.6-18.35-138.45-25.85-10.84-5-15.85-15.85-13.34-26.69l10.84-47.54c2.5-11.68,13.35-17.52,25-13.34,18.35,6.67,62.55,26.69,113.43,26.69,48.37,0,76.73-23.36,76.73-71.73,0-45.87-35-65.06-78.4-86.74l-36.7-18.35C1786.78,355.57,1734.24,318,1734.24,228s65.06-152.63,171-152.63c60.88,0,97.58,15,112.6,20.85,10.84,4.17,13.34,15.85,10.84,26.69l-9.18,43.37c-2.5,11.67-12.51,17.51-25,12.51-13.34-5-42.54-20-86.74-20-46.71,0-70.06,21.68-70.06,64.22,0,38.36,40,55.88,85.91,79.23l42.53,21.69c51.71,26.69,93.42,69.23,93.42,155.13C2059.51,583.26,1992.79,645.82,1881,645.82Z" transform="translate(-52.82 -50.31)"/><path class="a" d="M2401.44,640.81h-48.37c-12.51,0-20-6.67-22.52-20.85l-4.17-25.85c-22.52,34.2-60.88,51.71-110.09,51.71-73.39,0-112.59-46.71-112.59-124.27,0-78.4,50.88-127.61,141-132.62l70.06-4.17V368.08c0-38.36-14.18-55-61.72-55-33.36,0-64.22,9.17-81.73,14.18-13.35,4.17-23.36-2.5-25.86-13.35l-10-41.7c-3.34-12.51.83-20,13.34-24.19,19.18-5.84,65.89-17.51,109.26-17.51,125.94,0,152.63,69.23,152.63,159.3V529.89c0,18.35,0,41.7,4.17,65.05l4.17,25C2421.46,633.31,2414.78,640.81,2401.44,640.81ZM2314.7,449l-42.54,1.67c-43.37,1.67-71.72,19.18-71.72,69.23,0,33.36,21.69,49.21,41.7,49.21,42.53,0,72.56-30.86,72.56-65.89V449Z" transform="translate(-52.82 -50.31)"/><path class="a" d="M2643.28,637.48c-10.84,4.17-29.19,8.34-60.05,8.34-53.38,0-75.9-35-75.9-93.41V71.16c0-11.67,10-20.85,21.69-20.85h54.21a20.65,20.65,0,0,1,20.85,20.85V543.23c0,10.84,2.5,15.85,10,15.85s10.84-1.67,16.68-2.5c13.34-2.5,18.35,2.5,20,15l5.84,45C2658.29,626.63,2653.29,633.31,2643.28,637.48Z" transform="translate(-52.82 -50.31)"/><path class="a" d="M2981.06,468.17H2785.89c4.17,55.88,20.85,94.25,86.74,94.25,37.53,0,62.55-9.17,82.57-16.68,13.34-5,19.18,3.33,22.52,13.34l14.18,40c4.17,11.67-2.5,19.18-12.51,24.19C2966,630,2927.68,645.82,2861,645.82c-110.09,0-176-68.39-176-208.51,0-122.6,60.88-206.84,160.14-206.84,100.92,0,156.8,66.72,156.8,216.85A20.65,20.65,0,0,1,2981.06,468.17Zm-134.28-161c-35.87,0-55.88,32.53-60.88,95.92h119.27C2904.33,353.07,2890.15,307.19,2846.78,307.19Z" transform="translate(-52.82 -50.31)"/><path class="a" d="M3180.37,645.82c-65.05,0-107.59-19.18-120.93-25-11.68-5-15.85-15-12.52-25.86l13.35-40.87c4.17-12.51,11.68-19.18,24.19-14.18,15,5.84,55,24.19,92.58,24.19,30.86,0,44.2-11.68,44.2-36.7,0-30-29.19-40.87-64.22-59.21-45.87-23.36-98.42-49.21-98.42-120.94,0-67.56,45.87-116.77,130.95-116.77,40.87,0,63.39,4.17,96.75,18.35,10.84,4.17,18.35,15,14.18,25.85L3288,307.19c-4.17,11.68-13.35,18.35-24.19,14.18-16.68-5.84-40.87-15.85-68.39-15.85s-40.87,15-40.87,34.2c0,23.35,32.53,36.7,68.39,55,45.87,23.35,95.08,51.71,95.08,127.61C3318,594.11,3273.79,645.82,3180.37,645.82Z" transform="translate(-52.82 -50.31)"/><path class="a" d="M3466.64,116.39c0,36.43-29.3,65.33-66.53,65.33s-66.91-28.91-66.91-65.33,29.7-64.94,67.31-64.94C3437.34,51.45,3466.64,80,3466.64,116.39Zm-116.81,0c0,28.9,21.78,51.87,50.68,51.87,28.11,0.4,49.49-23,49.49-51.47,0-28.9-21.38-52.27-50.29-52.27C3371.61,64.51,3349.83,87.88,3349.83,116.39Zm40,33.66h-15V85.11a175.57,175.57,0,0,1,24.95-2c12.28,0,17.82,2,22.17,5.15,4,2.77,6.73,7.52,6.73,13.86,0,7.92-5.94,13.07-13.46,15.44v0.79c6.34,2,9.5,7.13,11.48,15.84,2,9.9,3.56,13.46,4.75,15.84h-15.84c-2-2.38-3.17-7.92-5.15-15.84-1.18-6.73-5.14-9.9-13.46-9.9h-7.13V150Zm0.4-36.43h7.13c8.31,0,15-2.77,15-9.5,0-5.94-4.35-9.9-13.86-9.9a36,36,0,0,0-8.31.79v18.61Z" transform="translate(-52.82 -50.31)"/></svg>